<svg width="24" height="24" viewBox="0 0 24 24" fill="none" xmlns="http://www.w3.org/2000/svg">
<path d="M11.2325 14.6784C11.1086 14.8139 10.9335 14.891 10.7499 14.891C10.5663 14.891 10.3913 14.8139 10.2674 14.6784L6.78018 10.8643C6.53651 10.5978 6.55503 10.1842 6.82154 9.94054C7.08806 9.69687 7.50163 9.71535 7.74529 9.98186L10.0961 12.553V2.90385C10.0961 2.54274 10.3888 2.25 10.7499 2.25C11.111 2.25 11.4038 2.54274 11.4038 2.90385V12.553L13.7546 9.98186C13.9982 9.71535 14.4118 9.69687 14.6783 9.94054C14.9448 10.1842 14.9633 10.5978 14.7196 10.8643L11.2325 14.6784Z" fill="white" stroke="white" stroke-width="0.5"/>
<path d="M3.55769 13.3654C3.55769 13.0043 3.26496 12.7115 2.90385 12.7115C2.54274 12.7115 2.25 13.0043 2.25 13.3654V13.4132C2.24998 14.6055 2.24997 15.5665 2.35158 16.3223C2.45709 17.107 2.68279 17.7677 3.20754 18.2924C3.73229 18.8172 4.39299 19.0429 5.17771 19.1484C5.93353 19.25 6.89452 19.25 8.08678 19.25H13.4132C14.6055 19.25 15.5665 19.25 16.3223 19.1484C17.107 19.0429 17.7677 18.8172 18.2925 18.2924C18.8172 17.7677 19.0429 17.107 19.1484 16.3223C19.25 15.5665 19.25 14.6055 19.25 13.4132V13.3654C19.25 13.0043 18.9573 12.7115 18.5962 12.7115C18.2351 12.7115 17.9423 13.0043 17.9423 13.3654C17.9423 14.6168 17.9409 15.4895 17.8524 16.1481C17.7664 16.7878 17.6091 17.1265 17.3678 17.3678C17.1265 17.6091 16.7878 17.7664 16.1481 17.8524C15.4895 17.9409 14.6168 17.9423 13.3654 17.9423H8.13462C6.88323 17.9423 6.01046 17.9409 5.35195 17.8524C4.71225 17.7664 4.37349 17.6091 4.13221 17.3678C3.89094 17.1265 3.73362 16.7878 3.64762 16.1481C3.55908 15.4895 3.55769 14.6168 3.55769 13.3654Z" fill="white" stroke="white" stroke-width="0.5"/>
</svg>
