<svg width="56" height="56" viewBox="0 0 56 56" fill="none" xmlns="http://www.w3.org/2000/svg">
<rect width="56" height="56" rx="10" fill="#155DFC"/>
<path d="M21.3333 33.7333C24.2667 33.7333 26.6667 31.2933 26.6667 28.3333C26.6667 26.7867 25.9067 25.32 24.3867 24.08C22.8667 22.84 21.72 21 21.3333 19.0667C20.9467 21 19.8133 22.8533 18.28 24.08C16.7467 25.3067 16 26.8 16 28.3333C16 31.2933 18.4 33.7333 21.3333 33.7333Z" stroke="white" stroke-width="2.66667" stroke-linecap="round" stroke-linejoin="round"/>
<path d="M28.7467 20.8C29.6637 19.3348 30.3137 17.7187 30.6667 16.0267C31.3333 19.36 33.3333 22.56 36 24.6933C38.6667 26.8267 40 29.36 40 32.0267C40.0076 33.8697 39.4678 35.6735 38.4491 37.2095C37.4303 38.7454 35.9784 39.9442 34.2775 40.654C32.5766 41.3638 30.7032 41.5525 28.8949 41.1964C27.0866 40.8402 25.4247 39.9551 24.12 38.6533" stroke="white" stroke-width="2.66667" stroke-linecap="round" stroke-linejoin="round"/>
</svg>
