<svg width="21" height="21" viewBox="0 0 21 21" fill="none" xmlns="http://www.w3.org/2000/svg">
<path d="M10.9826 14.4284C10.8587 14.5639 10.6836 14.641 10.5 14.641C10.3164 14.641 10.1414 14.5639 10.0175 14.4284L6.5303 10.6143C6.28664 10.3478 6.30515 9.93421 6.57166 9.69054C6.83818 9.44687 7.25175 9.46535 7.49542 9.73186L9.84619 12.303V2.65385C9.84619 2.29274 10.1389 2 10.5 2C10.8611 2 11.1539 2.29274 11.1539 2.65385V12.303L13.5047 9.73186C13.7483 9.46535 14.1619 9.44687 14.4284 9.69054C14.6949 9.93421 14.7134 10.3478 14.4698 10.6143L10.9826 14.4284Z" fill="white" stroke="white" stroke-width="0.5"/>
<path d="M3.30769 13.1154C3.30769 12.7543 3.01496 12.4615 2.65385 12.4615C2.29274 12.4615 2 12.7543 2 13.1154V13.1633C1.99998 14.3555 1.99997 15.3165 2.10158 16.0723C2.20709 16.8571 2.43279 17.5177 2.95754 18.0424C3.48229 18.5673 4.14299 18.793 4.92771 18.8984C5.68353 19 6.64452 19 7.83678 19H13.1632C14.3555 19 15.3165 19 16.0723 18.8984C16.857 18.793 17.5177 18.5673 18.0425 18.0424C18.5672 17.5177 18.7929 16.8571 18.8984 16.0723C19 15.3165 19 14.3555 19 13.1633V13.1154C19 12.7543 18.7073 12.4615 18.3462 12.4615C17.9851 12.4615 17.6923 12.7543 17.6923 13.1154C17.6923 14.3668 17.6909 15.2395 17.6024 15.8981C17.5164 16.5378 17.3591 16.8765 17.1178 17.1178C16.8765 17.3591 16.5378 17.5164 15.8981 17.6024C15.2395 17.6909 14.3668 17.6923 13.1154 17.6923H7.88462C6.63323 17.6923 5.76046 17.6909 5.10195 17.6024C4.46225 17.5164 4.12349 17.3591 3.88221 17.1178C3.64094 16.8765 3.48362 16.5378 3.39762 15.8981C3.30908 15.2395 3.30769 14.3668 3.30769 13.1154Z" fill="white" stroke="white" stroke-width="0.5"/>
</svg>
